<svg width="25" height="24" viewBox="0 0 25 24" fill="none" xmlns="http://www.w3.org/2000/svg">
<path d="M19.9924 4.625C19.9299 4.4375 19.7737 4.28125 19.5862 4.21875C18.5862 4 17.7737 4 16.9924 4C13.7424 4 11.7737 5.75 10.3362 8H7.14868C6.64868 8.03125 6.05493 8.375 5.80493 8.84375L4.27368 11.9375C4.24243 12.0312 4.21118 12.1562 4.21118 12.25C4.21118 12.6875 4.52368 13 4.96118 13H7.83618L7.52368 13.6875C7.21118 14.2812 7.64868 14.7812 7.71118 14.8438L9.36743 16.5C9.42993 16.5625 9.92993 17 10.5237 16.6875L11.1799 16.375V19.25C11.2112 19.6875 11.5237 20 11.9299 20C12.0549 20 12.1799 19.9688 12.2737 19.9375L15.3674 18.4062C15.8049 18.1562 16.1799 17.5625 16.1799 17.0625V13.875C18.4612 12.4062 20.1799 10.4688 20.1799 7.21875C20.2112 6.4375 20.2112 5.625 19.9924 4.625ZM5.33618 12L6.71118 9.28125C6.80493 9.125 6.99243 9.03125 7.14868 9H9.83618C9.39868 9.90625 8.83618 11 8.33618 12H5.33618ZM15.1799 17.0625C15.1799 17.2188 15.0549 17.4375 14.8987 17.5L12.1799 18.8438V15.875C13.1799 15.375 14.3049 14.8125 15.1799 14.375V17.0625ZM15.6487 13.0312C14.3987 13.6562 11.3987 15.1562 10.0862 15.8125L8.39868 14.125C9.05493 12.8125 10.5549 9.78125 11.1487 8.5625C12.7424 6.09375 14.5237 5 16.9924 5C17.6487 5 18.3049 5 19.0549 5.15625C19.2112 5.9375 19.2112 6.5625 19.1799 7.21875C19.1799 9.6875 18.0862 11.4688 15.6487 13.0312ZM15.6799 6.78125C14.7424 6.78125 13.9299 7.5625 13.9299 8.53125C13.9299 9.46875 14.7424 10.2812 15.6799 10.2812C16.6487 10.2812 17.4299 9.46875 17.4299 8.53125C17.4299 7.5625 16.6487 6.78125 15.6799 6.78125ZM15.6799 9.28125C15.2737 9.28125 14.9299 8.9375 14.9299 8.53125C14.9299 8.09375 15.2737 7.78125 15.6799 7.78125C16.1174 7.78125 16.4299 8.09375 16.4299 8.53125C16.4299 8.9375 16.1174 9.28125 15.6799 9.28125Z" fill="#15224B"/>
</svg>
